<mxfile host="app.diagrams.net" modified="2024-03-05T06:41:18.209Z" agent="Mozilla/5.0 (Macintosh; Intel Mac OS X 10_15_7) AppleWebKit/537.36 (KHTML, like Gecko) Chrome/122.0.0.0 Safari/537.36" etag="2em5pcvQ36bM9tc4qgMv" version="24.0.1" type="google">
  <diagram name="Page-1" id="j13iJrkya97ZrsCRxESU">
    <mxGraphModel dx="2209" dy="1279" grid="1" gridSize="10" guides="1" tooltips="1" connect="1" arrows="1" fold="1" page="1" pageScale="1" pageWidth="850" pageHeight="1100" math="0" shadow="0">
      <root>
        <mxCell id="0" />
        <mxCell id="1" parent="0" />
        <mxCell id="5DOk1M7wFP_Q3jLWfmDC-10" style="edgeStyle=entityRelationEdgeStyle;rounded=0;orthogonalLoop=1;jettySize=auto;html=1;startArrow=none;endArrow=none;segment=10;curved=1;sourcePerimeterSpacing=0;targetPerimeterSpacing=0;exitX=1;exitY=0;exitDx=0;exitDy=0;strokeColor=#00141C;fontFamily=Dosis;" parent="1" target="5DOk1M7wFP_Q3jLWfmDC-9" edge="1">
          <mxGeometry relative="1" as="geometry">
            <mxPoint x="-245.0014575050762" y="310.00126265847075" as="sourcePoint" />
            <mxPoint x="-111.57000000000005" y="324.75" as="targetPoint" />
          </mxGeometry>
        </mxCell>
        <mxCell id="5DOk1M7wFP_Q3jLWfmDC-12" style="edgeStyle=entityRelationEdgeStyle;rounded=0;orthogonalLoop=1;jettySize=auto;html=1;startArrow=none;endArrow=none;segment=10;curved=1;sourcePerimeterSpacing=0;targetPerimeterSpacing=0;entryX=0;entryY=0.5;entryDx=0;entryDy=0;exitX=1;exitY=1;exitDx=0;exitDy=0;strokeColor=#00141C;fontFamily=Dosis;" parent="1" source="5DOk1M7wFP_Q3jLWfmDC-1" target="5DOk1M7wFP_Q3jLWfmDC-11" edge="1">
          <mxGeometry relative="1" as="geometry" />
        </mxCell>
        <mxCell id="5DOk1M7wFP_Q3jLWfmDC-17" style="edgeStyle=entityRelationEdgeStyle;rounded=0;orthogonalLoop=1;jettySize=auto;html=1;startArrow=none;endArrow=none;segment=10;curved=1;sourcePerimeterSpacing=0;targetPerimeterSpacing=0;exitX=0.375;exitY=0.029;exitDx=0;exitDy=0;exitPerimeter=0;strokeColor=#00141C;fontFamily=Dosis;" parent="1" source="5DOk1M7wFP_Q3jLWfmDC-1" target="5DOk1M7wFP_Q3jLWfmDC-13" edge="1">
          <mxGeometry relative="1" as="geometry">
            <mxPoint x="-405" y="305" as="sourcePoint" />
          </mxGeometry>
        </mxCell>
        <mxCell id="5DOk1M7wFP_Q3jLWfmDC-18" style="edgeStyle=entityRelationEdgeStyle;rounded=0;orthogonalLoop=1;jettySize=auto;html=1;startArrow=none;endArrow=none;segment=10;curved=1;sourcePerimeterSpacing=0;targetPerimeterSpacing=0;exitX=0;exitY=1;exitDx=0;exitDy=0;entryX=1;entryY=0.5;entryDx=0;entryDy=0;strokeColor=#00141C;fontFamily=Dosis;" parent="1" source="5DOk1M7wFP_Q3jLWfmDC-1" target="5DOk1M7wFP_Q3jLWfmDC-14" edge="1">
          <mxGeometry relative="1" as="geometry" />
        </mxCell>
        <mxCell id="5DOk1M7wFP_Q3jLWfmDC-19" style="edgeStyle=entityRelationEdgeStyle;rounded=0;orthogonalLoop=1;jettySize=auto;html=1;startArrow=none;endArrow=none;segment=10;curved=1;sourcePerimeterSpacing=0;targetPerimeterSpacing=0;entryX=1;entryY=0.5;entryDx=0;entryDy=0;exitX=0.344;exitY=1.007;exitDx=0;exitDy=0;exitPerimeter=0;strokeColor=#00141C;fontFamily=Dosis;" parent="1" source="5DOk1M7wFP_Q3jLWfmDC-1" target="5DOk1M7wFP_Q3jLWfmDC-16" edge="1">
          <mxGeometry relative="1" as="geometry" />
        </mxCell>
        <mxCell id="5DOk1M7wFP_Q3jLWfmDC-20" style="edgeStyle=entityRelationEdgeStyle;rounded=0;orthogonalLoop=1;jettySize=auto;html=1;startArrow=none;endArrow=none;segment=10;curved=1;sourcePerimeterSpacing=0;targetPerimeterSpacing=0;entryX=0;entryY=0.5;entryDx=0;entryDy=0;exitX=0.594;exitY=1.022;exitDx=0;exitDy=0;exitPerimeter=0;strokeColor=#00141C;fontFamily=Dosis;" parent="1" source="5DOk1M7wFP_Q3jLWfmDC-1" target="5DOk1M7wFP_Q3jLWfmDC-15" edge="1">
          <mxGeometry relative="1" as="geometry">
            <Array as="points">
              <mxPoint x="-295" y="630" />
            </Array>
          </mxGeometry>
        </mxCell>
        <mxCell id="5DOk1M7wFP_Q3jLWfmDC-1" value="MicroProfile Architecture Philosophy&amp;nbsp;🏛️" style="ellipse;whiteSpace=wrap;html=1;align=center;newEdgeStyle={&quot;edgeStyle&quot;:&quot;entityRelationEdgeStyle&quot;,&quot;startArrow&quot;:&quot;none&quot;,&quot;endArrow&quot;:&quot;none&quot;,&quot;segment&quot;:10,&quot;curved&quot;:1,&quot;sourcePerimeterSpacing&quot;:0,&quot;targetPerimeterSpacing&quot;:0};treeFolding=1;treeMoving=1;fillColor=#fdb71c;fontFamily=Dosis;fontSize=16;fontSource=https%3A%2F%2Ffonts.googleapis.com%2Fcss%3Ffamily%3DDosis;" parent="1" vertex="1">
          <mxGeometry x="-405" y="280" width="160" height="70" as="geometry" />
        </mxCell>
        <mxCell id="5DOk1M7wFP_Q3jLWfmDC-3" value="Simplicity" style="whiteSpace=wrap;html=1;rounded=1;arcSize=50;align=center;verticalAlign=middle;strokeWidth=1;autosize=1;spacing=4;treeFolding=1;treeMoving=1;newEdgeStyle={&quot;edgeStyle&quot;:&quot;entityRelationEdgeStyle&quot;,&quot;startArrow&quot;:&quot;none&quot;,&quot;endArrow&quot;:&quot;none&quot;,&quot;segment&quot;:10,&quot;curved&quot;:1,&quot;sourcePerimeterSpacing&quot;:0,&quot;targetPerimeterSpacing&quot;:0};fontColor=#FFFFFF;fillColor=#1D2F42;fontFamily=Dosis;fontSize=14;fontStyle=0;fontSource=https%3A%2F%2Ffonts.googleapis.com%2Fcss%3Ffamily%3DDosis;" parent="1" vertex="1">
          <mxGeometry x="-255" y="60" width="100" height="30" as="geometry" />
        </mxCell>
        <mxCell id="5DOk1M7wFP_Q3jLWfmDC-4" value="" style="edgeStyle=entityRelationEdgeStyle;startArrow=none;endArrow=none;segment=10;curved=1;sourcePerimeterSpacing=0;targetPerimeterSpacing=0;rounded=0;exitX=0.656;exitY=0.007;exitDx=0;exitDy=0;exitPerimeter=0;strokeColor=#00141C;fontFamily=Dosis;" parent="1" source="5DOk1M7wFP_Q3jLWfmDC-1" target="5DOk1M7wFP_Q3jLWfmDC-3" edge="1">
          <mxGeometry relative="1" as="geometry">
            <mxPoint x="-415" y="560" as="sourcePoint" />
          </mxGeometry>
        </mxCell>
        <mxCell id="5DOk1M7wFP_Q3jLWfmDC-9" value="&lt;font color=&quot;#ffffff&quot; style=&quot;font-size: 14px;&quot;&gt;Modularity&amp;nbsp;🧩&lt;/font&gt;" style="whiteSpace=wrap;html=1;rounded=1;arcSize=50;align=center;verticalAlign=middle;strokeWidth=1;autosize=1;spacing=4;treeFolding=1;treeMoving=1;newEdgeStyle={&quot;edgeStyle&quot;:&quot;entityRelationEdgeStyle&quot;,&quot;startArrow&quot;:&quot;none&quot;,&quot;endArrow&quot;:&quot;none&quot;,&quot;segment&quot;:10,&quot;curved&quot;:1,&quot;sourcePerimeterSpacing&quot;:0,&quot;targetPerimeterSpacing&quot;:0};fillColor=#1d2f42;fontFamily=Dosis;fontSize=14;fontStyle=0;fontSource=https%3A%2F%2Ffonts.googleapis.com%2Fcss%3Ffamily%3DDosis;" parent="1" vertex="1">
          <mxGeometry x="-155" y="230" width="120" height="30" as="geometry" />
        </mxCell>
        <mxCell id="5DOk1M7wFP_Q3jLWfmDC-11" value="&lt;font color=&quot;#ffffff&quot; style=&quot;font-size: 14px;&quot;&gt;Standard-based&amp;nbsp;🌍&lt;/font&gt;" style="whiteSpace=wrap;html=1;rounded=1;arcSize=50;align=center;verticalAlign=middle;strokeWidth=1;autosize=1;spacing=4;treeFolding=1;treeMoving=1;newEdgeStyle={&quot;edgeStyle&quot;:&quot;entityRelationEdgeStyle&quot;,&quot;startArrow&quot;:&quot;none&quot;,&quot;endArrow&quot;:&quot;none&quot;,&quot;segment&quot;:10,&quot;curved&quot;:1,&quot;sourcePerimeterSpacing&quot;:0,&quot;targetPerimeterSpacing&quot;:0};fillColor=#1D2F42;fontFamily=Dosis;fontSize=14;fontStyle=0;fontSource=https%3A%2F%2Ffonts.googleapis.com%2Fcss%3Ffamily%3DDosis;" parent="1" vertex="1">
          <mxGeometry x="-125" y="430" width="150" height="30" as="geometry" />
        </mxCell>
        <mxCell id="5DOk1M7wFP_Q3jLWfmDC-13" value="&lt;font color=&quot;#ffffff&quot; style=&quot;font-size: 14px;&quot;&gt;Community &lt;br style=&quot;font-size: 14px;&quot;&gt;Driven&amp;nbsp;👥&lt;/font&gt;" style="whiteSpace=wrap;html=1;rounded=1;arcSize=50;align=center;verticalAlign=middle;strokeWidth=1;autosize=1;spacing=4;treeFolding=1;treeMoving=1;newEdgeStyle={&quot;edgeStyle&quot;:&quot;entityRelationEdgeStyle&quot;,&quot;startArrow&quot;:&quot;none&quot;,&quot;endArrow&quot;:&quot;none&quot;,&quot;segment&quot;:10,&quot;curved&quot;:1,&quot;sourcePerimeterSpacing&quot;:0,&quot;targetPerimeterSpacing&quot;:0};fillColor=#1D2F42;fontFamily=Dosis;fontSize=14;fontStyle=0;fontSource=https%3A%2F%2Ffonts.googleapis.com%2Fcss%3Ffamily%3DDosis;" parent="1" vertex="1">
          <mxGeometry x="-540" y="140" width="110" height="50" as="geometry" />
        </mxCell>
        <mxCell id="5DOk1M7wFP_Q3jLWfmDC-14" value="&lt;font color=&quot;#ffffff&quot; style=&quot;font-size: 14px;&quot;&gt;Vendor-Neutral&amp;nbsp;&lt;/font&gt;" style="whiteSpace=wrap;html=1;rounded=1;arcSize=50;align=center;verticalAlign=middle;strokeWidth=1;autosize=1;spacing=4;treeFolding=1;treeMoving=1;newEdgeStyle={&quot;edgeStyle&quot;:&quot;entityRelationEdgeStyle&quot;,&quot;startArrow&quot;:&quot;none&quot;,&quot;endArrow&quot;:&quot;none&quot;,&quot;segment&quot;:10,&quot;curved&quot;:1,&quot;sourcePerimeterSpacing&quot;:0,&quot;targetPerimeterSpacing&quot;:0};fillColor=#1D2F42;fontFamily=Dosis;fontSize=14;fontStyle=0;fontSource=https%3A%2F%2Ffonts.googleapis.com%2Fcss%3Ffamily%3DDosis;" parent="1" vertex="1">
          <mxGeometry x="-615" y="370" width="130" height="30" as="geometry" />
        </mxCell>
        <mxCell id="5DOk1M7wFP_Q3jLWfmDC-15" value="Reactive &lt;br style=&quot;font-size: 14px;&quot;&gt;Programming&amp;nbsp;⚡" style="whiteSpace=wrap;html=1;rounded=1;arcSize=50;align=center;verticalAlign=middle;strokeWidth=1;autosize=1;spacing=4;treeFolding=1;treeMoving=1;newEdgeStyle={&quot;edgeStyle&quot;:&quot;entityRelationEdgeStyle&quot;,&quot;startArrow&quot;:&quot;none&quot;,&quot;endArrow&quot;:&quot;none&quot;,&quot;segment&quot;:10,&quot;curved&quot;:1,&quot;sourcePerimeterSpacing&quot;:0,&quot;targetPerimeterSpacing&quot;:0};strokeColor=#1D2F42;fillColor=#1D2F42;fontColor=#FFFFFF;fontFamily=Dosis;fontSize=14;fontStyle=0;fontSource=https%3A%2F%2Ffonts.googleapis.com%2Fcss%3Ffamily%3DDosis;" parent="1" vertex="1">
          <mxGeometry x="-240" y="630" width="140" height="50" as="geometry" />
        </mxCell>
        <mxCell id="5DOk1M7wFP_Q3jLWfmDC-16" value="&lt;font color=&quot;#ffffff&quot; style=&quot;font-size: 14px;&quot;&gt;Focus on Cloud-Native &lt;br style=&quot;font-size: 14px;&quot;&gt;Applications&amp;nbsp;☁️&lt;/font&gt;" style="whiteSpace=wrap;html=1;rounded=1;arcSize=50;align=center;verticalAlign=middle;strokeWidth=1;autosize=1;spacing=4;treeFolding=1;treeMoving=1;newEdgeStyle={&quot;edgeStyle&quot;:&quot;entityRelationEdgeStyle&quot;,&quot;startArrow&quot;:&quot;none&quot;,&quot;endArrow&quot;:&quot;none&quot;,&quot;segment&quot;:10,&quot;curved&quot;:1,&quot;sourcePerimeterSpacing&quot;:0,&quot;targetPerimeterSpacing&quot;:0};strokeColor=#00141C;fillColor=#1D2F42;fontFamily=Dosis;fontSize=14;fontStyle=0;fontSource=https%3A%2F%2Ffonts.googleapis.com%2Fcss%3Ffamily%3DDosis;" parent="1" vertex="1">
          <mxGeometry x="-570" y="550" width="160" height="50" as="geometry" />
        </mxCell>
        <mxCell id="5DOk1M7wFP_Q3jLWfmDC-21" value="Easy to use APIs&amp;nbsp;🔌" style="whiteSpace=wrap;html=1;shape=partialRectangle;top=0;left=0;bottom=1;right=0;points=[[0,1],[1,1]];fillColor=#f4f4f4;align=center;verticalAlign=bottom;routingCenterY=0.5;snapToPoint=1;recursiveResize=0;autosize=1;treeFolding=1;treeMoving=1;newEdgeStyle={&quot;edgeStyle&quot;:&quot;entityRelationEdgeStyle&quot;,&quot;startArrow&quot;:&quot;none&quot;,&quot;endArrow&quot;:&quot;none&quot;,&quot;segment&quot;:10,&quot;curved&quot;:1,&quot;sourcePerimeterSpacing&quot;:0,&quot;targetPerimeterSpacing&quot;:0};fontColor=#333333;strokeColor=#666666;fontFamily=Lato;fontStyle=0;fontSource=https%3A%2F%2Ffonts.googleapis.com%2Fcss%3Ffamily%3DLato;" parent="1" vertex="1">
          <mxGeometry x="-95" y="10" width="140" height="30" as="geometry" />
        </mxCell>
        <mxCell id="5DOk1M7wFP_Q3jLWfmDC-22" value="" style="edgeStyle=entityRelationEdgeStyle;startArrow=none;endArrow=none;segment=10;curved=1;sourcePerimeterSpacing=0;targetPerimeterSpacing=0;rounded=0;exitX=1;exitY=0.5;exitDx=0;exitDy=0;strokeColor=#00141C;fontFamily=Dosis;" parent="1" source="5DOk1M7wFP_Q3jLWfmDC-3" target="5DOk1M7wFP_Q3jLWfmDC-21" edge="1">
          <mxGeometry relative="1" as="geometry">
            <mxPoint x="-105" y="60" as="sourcePoint" />
          </mxGeometry>
        </mxCell>
        <mxCell id="5DOk1M7wFP_Q3jLWfmDC-24" value="Essential functionality&amp;nbsp;✅ " style="whiteSpace=wrap;html=1;shape=partialRectangle;top=0;left=0;bottom=1;right=0;points=[[0,1],[1,1]];fillColor=#f4f4f4;align=center;verticalAlign=bottom;routingCenterY=0.5;snapToPoint=1;recursiveResize=0;autosize=1;treeFolding=1;treeMoving=1;newEdgeStyle={&quot;edgeStyle&quot;:&quot;entityRelationEdgeStyle&quot;,&quot;startArrow&quot;:&quot;none&quot;,&quot;endArrow&quot;:&quot;none&quot;,&quot;segment&quot;:10,&quot;curved&quot;:1,&quot;sourcePerimeterSpacing&quot;:0,&quot;targetPerimeterSpacing&quot;:0};fontFamily=Lato;fontStyle=0;fontSource=https%3A%2F%2Ffonts.googleapis.com%2Fcss%3Ffamily%3DLato;" parent="1" vertex="1">
          <mxGeometry x="-95" y="80" width="170" height="30" as="geometry" />
        </mxCell>
        <mxCell id="5DOk1M7wFP_Q3jLWfmDC-25" value="" style="edgeStyle=entityRelationEdgeStyle;startArrow=none;endArrow=none;segment=10;curved=1;sourcePerimeterSpacing=0;targetPerimeterSpacing=0;rounded=0;exitX=1;exitY=0.75;exitDx=0;exitDy=0;strokeColor=#00141C;fontFamily=Dosis;" parent="1" source="5DOk1M7wFP_Q3jLWfmDC-3" target="5DOk1M7wFP_Q3jLWfmDC-24" edge="1">
          <mxGeometry relative="1" as="geometry">
            <mxPoint x="-425" y="510" as="sourcePoint" />
          </mxGeometry>
        </mxCell>
        <mxCell id="5DOk1M7wFP_Q3jLWfmDC-27" value="Java community &lt;br&gt;participation&amp;nbsp;☕" style="whiteSpace=wrap;html=1;shape=partialRectangle;top=0;left=0;bottom=1;right=0;points=[[0,1],[1,1]];fillColor=#f4f4f4;align=center;verticalAlign=bottom;routingCenterY=0.5;snapToPoint=1;recursiveResize=0;autosize=1;treeFolding=1;treeMoving=1;newEdgeStyle={&quot;edgeStyle&quot;:&quot;entityRelationEdgeStyle&quot;,&quot;startArrow&quot;:&quot;none&quot;,&quot;endArrow&quot;:&quot;none&quot;,&quot;segment&quot;:10,&quot;curved&quot;:1,&quot;sourcePerimeterSpacing&quot;:0,&quot;targetPerimeterSpacing&quot;:0};fontFamily=Lato;fontStyle=0;fontSource=https%3A%2F%2Ffonts.googleapis.com%2Fcss%3Ffamily%3DLato;" parent="1" vertex="1">
          <mxGeometry x="-770" y="60" width="130" height="40" as="geometry" />
        </mxCell>
        <mxCell id="5DOk1M7wFP_Q3jLWfmDC-28" value="" style="edgeStyle=entityRelationEdgeStyle;startArrow=none;endArrow=none;segment=10;curved=1;sourcePerimeterSpacing=0;targetPerimeterSpacing=0;rounded=0;entryX=0.945;entryY=1.001;entryDx=0;entryDy=0;entryPerimeter=0;strokeColor=#00141C;fontFamily=Dosis;" parent="1" source="5DOk1M7wFP_Q3jLWfmDC-13" target="5DOk1M7wFP_Q3jLWfmDC-27" edge="1">
          <mxGeometry relative="1" as="geometry">
            <mxPoint x="-495" y="150" as="sourcePoint" />
            <mxPoint x="-615" y="-280" as="targetPoint" />
          </mxGeometry>
        </mxCell>
        <mxCell id="5DOk1M7wFP_Q3jLWfmDC-30" value="Continuous evolution" style="whiteSpace=wrap;html=1;shape=partialRectangle;top=0;left=0;bottom=1;right=0;points=[[0,1],[1,1]];fillColor=#f4f4f4;align=center;verticalAlign=bottom;routingCenterY=0.5;snapToPoint=1;recursiveResize=0;autosize=1;treeFolding=1;treeMoving=1;newEdgeStyle={&quot;edgeStyle&quot;:&quot;entityRelationEdgeStyle&quot;,&quot;startArrow&quot;:&quot;none&quot;,&quot;endArrow&quot;:&quot;none&quot;,&quot;segment&quot;:10,&quot;curved&quot;:1,&quot;sourcePerimeterSpacing&quot;:0,&quot;targetPerimeterSpacing&quot;:0};fontFamily=Lato;fontStyle=0;fontSource=https%3A%2F%2Ffonts.googleapis.com%2Fcss%3Ffamily%3DLato;" parent="1" vertex="1">
          <mxGeometry x="-755" y="200" width="150" height="30" as="geometry" />
        </mxCell>
        <mxCell id="5DOk1M7wFP_Q3jLWfmDC-31" value="" style="edgeStyle=entityRelationEdgeStyle;startArrow=none;endArrow=none;segment=10;curved=1;sourcePerimeterSpacing=0;targetPerimeterSpacing=0;rounded=0;exitX=0;exitY=0.5;exitDx=0;exitDy=0;strokeColor=#00141C;fontFamily=Dosis;" parent="1" source="5DOk1M7wFP_Q3jLWfmDC-13" target="5DOk1M7wFP_Q3jLWfmDC-30" edge="1">
          <mxGeometry relative="1" as="geometry">
            <mxPoint x="-785" y="250" as="sourcePoint" />
          </mxGeometry>
        </mxCell>
        <mxCell id="5DOk1M7wFP_Q3jLWfmDC-42" style="edgeStyle=entityRelationEdgeStyle;rounded=0;orthogonalLoop=1;jettySize=auto;html=1;startArrow=none;endArrow=none;segment=10;curved=1;sourcePerimeterSpacing=0;targetPerimeterSpacing=0;exitX=1;exitY=1;exitDx=0;exitDy=0;entryX=0;entryY=0.333;entryDx=0;entryDy=0;entryPerimeter=0;strokeColor=#00141C;fontFamily=Dosis;" parent="1" source="5DOk1M7wFP_Q3jLWfmDC-32" target="5DOk1M7wFP_Q3jLWfmDC-14" edge="1">
          <mxGeometry relative="1" as="geometry" />
        </mxCell>
        <mxCell id="5DOk1M7wFP_Q3jLWfmDC-32" value="Eclipse Foundation project" style="whiteSpace=wrap;html=1;shape=partialRectangle;top=0;left=0;bottom=1;right=0;points=[[0,1],[1,1]];fillColor=#f4f4f4;align=center;verticalAlign=bottom;routingCenterY=0.5;snapToPoint=1;recursiveResize=0;autosize=1;treeFolding=1;treeMoving=1;newEdgeStyle={&quot;edgeStyle&quot;:&quot;entityRelationEdgeStyle&quot;,&quot;startArrow&quot;:&quot;none&quot;,&quot;endArrow&quot;:&quot;none&quot;,&quot;segment&quot;:10,&quot;curved&quot;:1,&quot;sourcePerimeterSpacing&quot;:0,&quot;targetPerimeterSpacing&quot;:0};fontFamily=Lato;fontStyle=0;fontSource=https%3A%2F%2Ffonts.googleapis.com%2Fcss%3Ffamily%3DLato;" parent="1" vertex="1">
          <mxGeometry x="-830" y="310" width="180" height="30" as="geometry" />
        </mxCell>
        <mxCell id="5DOk1M7wFP_Q3jLWfmDC-43" style="edgeStyle=entityRelationEdgeStyle;rounded=0;orthogonalLoop=1;jettySize=auto;html=1;startArrow=none;endArrow=none;segment=10;curved=1;sourcePerimeterSpacing=0;targetPerimeterSpacing=0;exitX=1;exitY=1;exitDx=0;exitDy=0;entryX=0;entryY=0.75;entryDx=0;entryDy=0;strokeColor=#00141C;fontFamily=Dosis;" parent="1" source="5DOk1M7wFP_Q3jLWfmDC-33" target="5DOk1M7wFP_Q3jLWfmDC-14" edge="1">
          <mxGeometry relative="1" as="geometry" />
        </mxCell>
        <mxCell id="5DOk1M7wFP_Q3jLWfmDC-33" value="Industry support&amp;nbsp;🏭" style="whiteSpace=wrap;html=1;shape=partialRectangle;top=0;left=0;bottom=1;right=0;points=[[0,1],[1,1]];fillColor=#f4f4f4;align=center;verticalAlign=bottom;routingCenterY=0.5;snapToPoint=1;recursiveResize=0;autosize=1;treeFolding=1;treeMoving=1;newEdgeStyle={&quot;edgeStyle&quot;:&quot;entityRelationEdgeStyle&quot;,&quot;startArrow&quot;:&quot;none&quot;,&quot;endArrow&quot;:&quot;none&quot;,&quot;segment&quot;:10,&quot;curved&quot;:1,&quot;sourcePerimeterSpacing&quot;:0,&quot;targetPerimeterSpacing&quot;:0};fontFamily=Lato;fontStyle=0;fontSource=https%3A%2F%2Ffonts.googleapis.com%2Fcss%3Ffamily%3DLato;" parent="1" vertex="1">
          <mxGeometry x="-815" y="410" width="150" height="30" as="geometry" />
        </mxCell>
        <mxCell id="5DOk1M7wFP_Q3jLWfmDC-47" style="edgeStyle=entityRelationEdgeStyle;rounded=0;orthogonalLoop=1;jettySize=auto;html=1;startArrow=none;endArrow=none;segment=10;curved=1;sourcePerimeterSpacing=0;targetPerimeterSpacing=0;entryX=1;entryY=0.75;entryDx=0;entryDy=0;strokeColor=#00141C;fontFamily=Dosis;" parent="1" source="5DOk1M7wFP_Q3jLWfmDC-34" target="5DOk1M7wFP_Q3jLWfmDC-9" edge="1">
          <mxGeometry relative="1" as="geometry" />
        </mxCell>
        <mxCell id="5DOk1M7wFP_Q3jLWfmDC-34" value="Reduced overhead&amp;nbsp;⬇️ " style="whiteSpace=wrap;html=1;shape=partialRectangle;top=0;left=0;bottom=1;right=0;points=[[0,1],[1,1]];fillColor=#f4f4f4;align=center;verticalAlign=bottom;routingCenterY=0.5;snapToPoint=1;recursiveResize=0;autosize=1;treeFolding=1;treeMoving=1;newEdgeStyle={&quot;edgeStyle&quot;:&quot;entityRelationEdgeStyle&quot;,&quot;startArrow&quot;:&quot;none&quot;,&quot;endArrow&quot;:&quot;none&quot;,&quot;segment&quot;:10,&quot;curved&quot;:1,&quot;sourcePerimeterSpacing&quot;:0,&quot;targetPerimeterSpacing&quot;:0};fontFamily=Lato;fontStyle=0;fontSource=https%3A%2F%2Ffonts.googleapis.com%2Fcss%3Ffamily%3DLato;" parent="1" vertex="1">
          <mxGeometry x="45" y="260" width="160" height="30" as="geometry" />
        </mxCell>
        <mxCell id="5DOk1M7wFP_Q3jLWfmDC-46" style="edgeStyle=entityRelationEdgeStyle;rounded=0;orthogonalLoop=1;jettySize=auto;html=1;startArrow=none;endArrow=none;segment=10;curved=1;sourcePerimeterSpacing=0;targetPerimeterSpacing=0;entryX=1;entryY=0.5;entryDx=0;entryDy=0;strokeColor=#00141C;fontFamily=Dosis;" parent="1" source="5DOk1M7wFP_Q3jLWfmDC-35" target="5DOk1M7wFP_Q3jLWfmDC-9" edge="1">
          <mxGeometry relative="1" as="geometry" />
        </mxCell>
        <mxCell id="5DOk1M7wFP_Q3jLWfmDC-35" value="Modular approach&amp;nbsp;📦 " style="whiteSpace=wrap;html=1;shape=partialRectangle;top=0;left=0;bottom=1;right=0;points=[[0,1],[1,1]];fillColor=#f4f4f4;align=center;verticalAlign=bottom;routingCenterY=0.5;snapToPoint=1;recursiveResize=0;autosize=1;treeFolding=1;treeMoving=1;newEdgeStyle={&quot;edgeStyle&quot;:&quot;entityRelationEdgeStyle&quot;,&quot;startArrow&quot;:&quot;none&quot;,&quot;endArrow&quot;:&quot;none&quot;,&quot;segment&quot;:10,&quot;curved&quot;:1,&quot;sourcePerimeterSpacing&quot;:0,&quot;targetPerimeterSpacing&quot;:0};fontFamily=Lato;fontStyle=0;fontSource=https%3A%2F%2Ffonts.googleapis.com%2Fcss%3Ffamily%3DLato;" parent="1" vertex="1">
          <mxGeometry x="50" y="170" width="150" height="30" as="geometry" />
        </mxCell>
        <mxCell id="5DOk1M7wFP_Q3jLWfmDC-48" style="edgeStyle=entityRelationEdgeStyle;rounded=0;orthogonalLoop=1;jettySize=auto;html=1;startArrow=none;endArrow=none;segment=10;curved=1;sourcePerimeterSpacing=0;targetPerimeterSpacing=0;entryX=1;entryY=0.5;entryDx=0;entryDy=0;strokeColor=#00141C;fontFamily=Dosis;" parent="1" source="5DOk1M7wFP_Q3jLWfmDC-36" target="5DOk1M7wFP_Q3jLWfmDC-11" edge="1">
          <mxGeometry relative="1" as="geometry" />
        </mxCell>
        <mxCell id="5DOk1M7wFP_Q3jLWfmDC-36" value="Open standards" style="whiteSpace=wrap;html=1;shape=partialRectangle;top=0;left=0;bottom=1;right=0;points=[[0,1],[1,1]];fillColor=#f4f4f4;align=center;verticalAlign=bottom;routingCenterY=0.5;snapToPoint=1;recursiveResize=0;autosize=1;treeFolding=1;treeMoving=1;newEdgeStyle={&quot;edgeStyle&quot;:&quot;entityRelationEdgeStyle&quot;,&quot;startArrow&quot;:&quot;none&quot;,&quot;endArrow&quot;:&quot;none&quot;,&quot;segment&quot;:10,&quot;curved&quot;:1,&quot;sourcePerimeterSpacing&quot;:0,&quot;targetPerimeterSpacing&quot;:0};fontFamily=Lato;fontStyle=0;fontSource=https%3A%2F%2Ffonts.googleapis.com%2Fcss%3Ffamily%3DLato;" parent="1" vertex="1">
          <mxGeometry x="80" y="350" width="120" height="30" as="geometry" />
        </mxCell>
        <mxCell id="5DOk1M7wFP_Q3jLWfmDC-49" style="edgeStyle=entityRelationEdgeStyle;rounded=0;orthogonalLoop=1;jettySize=auto;html=1;startArrow=none;endArrow=none;segment=10;curved=1;sourcePerimeterSpacing=0;targetPerimeterSpacing=0;entryX=1;entryY=0.75;entryDx=0;entryDy=0;strokeColor=#00141C;fontFamily=Dosis;" parent="1" source="5DOk1M7wFP_Q3jLWfmDC-37" target="5DOk1M7wFP_Q3jLWfmDC-11" edge="1">
          <mxGeometry relative="1" as="geometry" />
        </mxCell>
        <mxCell id="5DOk1M7wFP_Q3jLWfmDC-37" value="Compatibility" style="whiteSpace=wrap;html=1;shape=partialRectangle;top=0;left=0;bottom=1;right=0;points=[[0,1],[1,1]];fillColor=#f4f4f4;align=center;verticalAlign=bottom;routingCenterY=0.5;snapToPoint=1;recursiveResize=0;autosize=1;treeFolding=1;treeMoving=1;newEdgeStyle={&quot;edgeStyle&quot;:&quot;entityRelationEdgeStyle&quot;,&quot;startArrow&quot;:&quot;none&quot;,&quot;endArrow&quot;:&quot;none&quot;,&quot;segment&quot;:10,&quot;curved&quot;:1,&quot;sourcePerimeterSpacing&quot;:0,&quot;targetPerimeterSpacing&quot;:0};fontFamily=Lato;fontStyle=0;fontSource=https%3A%2F%2Ffonts.googleapis.com%2Fcss%3Ffamily%3DLato;" parent="1" vertex="1">
          <mxGeometry x="95" y="470" width="110" height="30" as="geometry" />
        </mxCell>
        <mxCell id="5DOk1M7wFP_Q3jLWfmDC-50" style="edgeStyle=entityRelationEdgeStyle;rounded=0;orthogonalLoop=1;jettySize=auto;html=1;startArrow=none;endArrow=none;segment=10;curved=1;sourcePerimeterSpacing=0;targetPerimeterSpacing=0;entryX=1;entryY=0.5;entryDx=0;entryDy=0;strokeColor=#00141C;fontFamily=Dosis;" parent="1" source="5DOk1M7wFP_Q3jLWfmDC-38" target="5DOk1M7wFP_Q3jLWfmDC-15" edge="1">
          <mxGeometry relative="1" as="geometry" />
        </mxCell>
        <mxCell id="5DOk1M7wFP_Q3jLWfmDC-38" value="Responsive and scalable" style="whiteSpace=wrap;html=1;shape=partialRectangle;top=0;left=0;bottom=1;right=0;points=[[0,1],[1,1]];fillColor=#f4f4f4;align=center;verticalAlign=bottom;routingCenterY=0.5;snapToPoint=1;recursiveResize=0;autosize=1;treeFolding=1;treeMoving=1;newEdgeStyle={&quot;edgeStyle&quot;:&quot;entityRelationEdgeStyle&quot;,&quot;startArrow&quot;:&quot;none&quot;,&quot;endArrow&quot;:&quot;none&quot;,&quot;segment&quot;:10,&quot;curved&quot;:1,&quot;sourcePerimeterSpacing&quot;:0,&quot;targetPerimeterSpacing&quot;:0};fontFamily=Lato;fontStyle=0;fontSource=https%3A%2F%2Ffonts.googleapis.com%2Fcss%3Ffamily%3DLato;" parent="1" vertex="1">
          <mxGeometry x="-45" y="580" width="170" height="30" as="geometry" />
        </mxCell>
        <mxCell id="5DOk1M7wFP_Q3jLWfmDC-51" style="edgeStyle=entityRelationEdgeStyle;rounded=0;orthogonalLoop=1;jettySize=auto;html=1;startArrow=none;endArrow=none;segment=10;curved=1;sourcePerimeterSpacing=0;targetPerimeterSpacing=0;entryX=1;entryY=0.75;entryDx=0;entryDy=0;exitX=0;exitY=1;exitDx=0;exitDy=0;strokeColor=#00141C;fontFamily=Dosis;" parent="1" source="5DOk1M7wFP_Q3jLWfmDC-39" target="5DOk1M7wFP_Q3jLWfmDC-15" edge="1">
          <mxGeometry relative="1" as="geometry">
            <mxPoint x="-5" y="680" as="sourcePoint" />
            <mxPoint x="-125" y="600" as="targetPoint" />
            <Array as="points">
              <mxPoint x="-35" y="660" />
            </Array>
          </mxGeometry>
        </mxCell>
        <mxCell id="5DOk1M7wFP_Q3jLWfmDC-39" value="Handles concurrent requests&amp;nbsp;🔄" style="whiteSpace=wrap;html=1;shape=partialRectangle;top=0;left=0;bottom=1;right=0;points=[[0,1],[1,1]];fillColor=#f4f4f4;align=center;verticalAlign=bottom;routingCenterY=0.5;snapToPoint=1;recursiveResize=0;autosize=1;treeFolding=1;treeMoving=1;newEdgeStyle={&quot;edgeStyle&quot;:&quot;entityRelationEdgeStyle&quot;,&quot;startArrow&quot;:&quot;none&quot;,&quot;endArrow&quot;:&quot;none&quot;,&quot;segment&quot;:10,&quot;curved&quot;:1,&quot;sourcePerimeterSpacing&quot;:0,&quot;targetPerimeterSpacing&quot;:0};fontFamily=Lato;fontStyle=0;fontSource=https%3A%2F%2Ffonts.googleapis.com%2Fcss%3Ffamily%3DLato;" parent="1" vertex="1">
          <mxGeometry x="-65" y="680" width="210" height="30" as="geometry" />
        </mxCell>
        <mxCell id="5DOk1M7wFP_Q3jLWfmDC-45" style="edgeStyle=entityRelationEdgeStyle;rounded=0;orthogonalLoop=1;jettySize=auto;html=1;startArrow=none;endArrow=none;segment=10;curved=1;sourcePerimeterSpacing=0;targetPerimeterSpacing=0;exitX=1;exitY=1;exitDx=0;exitDy=0;strokeColor=#00141C;fontFamily=Dosis;" parent="1" source="5DOk1M7wFP_Q3jLWfmDC-40" edge="1">
          <mxGeometry relative="1" as="geometry">
            <mxPoint x="-575" y="588" as="targetPoint" />
          </mxGeometry>
        </mxCell>
        <mxCell id="5DOk1M7wFP_Q3jLWfmDC-40" value="Features for &lt;br&gt;resilience and scalability&amp;nbsp;📈" style="whiteSpace=wrap;html=1;shape=partialRectangle;top=0;left=0;bottom=1;right=0;points=[[0,1],[1,1]];fillColor=#f4f4f4;align=center;verticalAlign=bottom;routingCenterY=0.5;snapToPoint=1;recursiveResize=0;autosize=1;treeFolding=1;treeMoving=1;newEdgeStyle={&quot;edgeStyle&quot;:&quot;entityRelationEdgeStyle&quot;,&quot;startArrow&quot;:&quot;none&quot;,&quot;endArrow&quot;:&quot;none&quot;,&quot;segment&quot;:10,&quot;curved&quot;:1,&quot;sourcePerimeterSpacing&quot;:0,&quot;targetPerimeterSpacing&quot;:0};fontFamily=Lato;fontStyle=0;fontSource=https%3A%2F%2Ffonts.googleapis.com%2Fcss%3Ffamily%3DLato;" parent="1" vertex="1">
          <mxGeometry x="-840" y="590" width="180" height="40" as="geometry" />
        </mxCell>
        <mxCell id="5DOk1M7wFP_Q3jLWfmDC-44" style="edgeStyle=entityRelationEdgeStyle;rounded=0;orthogonalLoop=1;jettySize=auto;html=1;startArrow=none;endArrow=none;segment=10;curved=1;sourcePerimeterSpacing=0;targetPerimeterSpacing=0;exitX=1;exitY=1;exitDx=0;exitDy=0;entryX=0;entryY=0.5;entryDx=0;entryDy=0;strokeColor=#00141C;fontFamily=Dosis;" parent="1" source="5DOk1M7wFP_Q3jLWfmDC-41" target="5DOk1M7wFP_Q3jLWfmDC-16" edge="1">
          <mxGeometry relative="1" as="geometry" />
        </mxCell>
        <mxCell id="5DOk1M7wFP_Q3jLWfmDC-41" value="Tailored for cloud" style="whiteSpace=wrap;html=1;shape=partialRectangle;top=0;left=0;bottom=1;right=0;points=[[0,1],[1,1]];fillColor=#f4f4f4;align=center;verticalAlign=bottom;routingCenterY=0.5;snapToPoint=1;recursiveResize=0;autosize=1;treeFolding=1;treeMoving=1;newEdgeStyle={&quot;edgeStyle&quot;:&quot;entityRelationEdgeStyle&quot;,&quot;startArrow&quot;:&quot;none&quot;,&quot;endArrow&quot;:&quot;none&quot;,&quot;segment&quot;:10,&quot;curved&quot;:1,&quot;sourcePerimeterSpacing&quot;:0,&quot;targetPerimeterSpacing&quot;:0};fontFamily=Lato;fontStyle=0;fontSource=https%3A%2F%2Ffonts.googleapis.com%2Fcss%3Ffamily%3DLato;" parent="1" vertex="1">
          <mxGeometry x="-805" y="510" width="130" height="30" as="geometry" />
        </mxCell>
      </root>
    </mxGraphModel>
  </diagram>
</mxfile>
